<svg id="Layer_1" data-name="Layer 1" xmlns="http://www.w3.org/2000/svg" viewBox="0 0 128 128"><defs><style>.cls-1{fill:none;stroke:#d3dbe3;stroke-miterlimit:10;stroke-width:2px;}.cls-2{fill:#334150;}.cls-3{fill:#a0abb6;}</style></defs><title>nx_circle</title><circle class="cls-1" cx="64" cy="64" r="63"/><path class="cls-2" d="M48.88,80.32V65.47c0-4.12-1.48-6.66-6-6.66-5.18,0-7.08,3.65-7.08,8.46v13H28V52.89h7.66v4C38,53.69,41.9,52.26,46,52.26c7.46,0,10.63,4.54,10.63,11.52V80.32Z"/><path class="cls-2" d="M82.23,80.32l-6.34-8.19-6.24,8.19H60.29l11-13.74L60.56,52.89h9l6.35,8.94,6.55-8.94h8.88L80.48,66.48,91.74,80.32Z"/><path class="cls-3" d="M103,43v6.82a9.8,9.8,0,0,1-8.3,10V56.8c3-1.48,3.49-2.8,4.07-5.86H95V43Z"/></svg>